<?xml version="1.0" standalone="no"?>
<!DOCTYPE svg PUBLIC "-//W3C//DTD SVG 20010904//EN"
 "http://www.w3.org/TR/2001/REC-SVG-20010904/DTD/svg10.dtd">
<svg version="1.0" xmlns="http://www.w3.org/2000/svg"
 width="2000.000000pt" height="2000.000000pt" viewBox="0 0 2000.000000 2000.000000"
 preserveAspectRatio="xMidYMid meet">
<metadata>
Created by potrace 1.11, written by Peter Selinger 2001-2013
</metadata>
<g transform="translate(0.000000,2000.000000) scale(0.100000,-0.100000)"
fill="#000000" stroke="none">
<path d="M4869 19570 c-4 -175 4 -523 15 -630 2 -19 7 -69 10 -110 11 -119 16
-170 28 -250 5 -41 11 -84 13 -95 1 -11 5 -40 9 -65 4 -25 9 -56 12 -70 11
-74 44 -242 48 -248 2 -4 7 -25 10 -47 4 -22 14 -67 22 -100 9 -33 18 -67 19
-75 33 -141 153 -496 202 -595 l15 -30 -29 30 c-16 17 -76 84 -133 150 -58 66
-116 132 -130 147 -14 14 -46 50 -71 80 -66 75 -285 326 -323 368 -17 19 -108
123 -202 230 -257 293 -264 300 -259 270 2 -14 6 -49 9 -79 4 -30 9 -64 11
-75 3 -12 7 -39 10 -61 27 -227 140 -705 234 -990 80 -244 216 -581 283 -699
5 -11 28 -53 50 -95 22 -42 49 -92 61 -111 20 -33 20 -34 2 -20 -18 13 -130
108 -161 135 -6 6 -22 19 -35 30 -27 22 -204 174 -683 584 -175 150 -320 270
-323 268 -9 -10 84 -319 160 -527 39 -107 109 -282 139 -350 11 -25 34 -76 51
-115 76 -172 210 -420 352 -653 40 -65 95 -144 178 -254 53 -71 95 -128 93
-128 -5 0 -206 127 -652 410 -649 412 -694 440 -694 430 0 -16 117 -266 192
-412 201 -385 390 -678 637 -983 132 -163 156 -189 320 -351 l133 -132 -443
199 c-244 109 -482 217 -529 238 -99 45 -131 59 -340 153 -85 39 -159 73 -165
76 -5 3 0 -10 11 -29 11 -19 27 -45 35 -58 8 -14 17 -30 21 -35 5 -6 38 -56
74 -111 64 -96 201 -289 235 -330 9 -11 47 -58 85 -105 276 -346 627 -688 918
-894 53 -37 96 -70 96 -72 0 -3 -18 2 -235 66 -77 23 -147 43 -155 45 -16 4
-14 3 -470 135 -173 50 -322 93 -331 95 -9 2 -72 20 -140 40 -68 20 -132 39
-143 42 -17 5 -17 3 -5 -14 15 -22 86 -105 163 -192 71 -80 409 -416 486 -482
36 -31 99 -85 140 -119 41 -34 84 -69 95 -78 40 -33 241 -180 300 -218 33 -21
62 -41 65 -44 3 -3 16 -11 30 -19 14 -8 54 -33 90 -55 36 -21 117 -66 180 -99
63 -32 116 -60 117 -61 2 -2 -23 1 -55 5 -143 20 -369 52 -389 54 -13 2 -40 6
-60 9 -21 3 -60 9 -88 12 -27 3 -59 8 -70 10 -11 2 -56 8 -100 14 -44 6 -91
12 -105 14 -33 6 -77 12 -180 26 -135 18 -153 21 -180 25 -14 3 -47 7 -75 10
-27 3 -57 8 -65 10 -8 2 -44 7 -80 10 -35 4 -69 9 -75 12 -11 6 69 -73 130
-127 22 -20 85 -72 140 -116 338 -270 651 -472 1000 -644 218 -107 334 -156
495 -206 99 -31 103 -33 60 -34 -25 -1 -376 -3 -780 -5 -413 -1 -733 -6 -731
-11 2 -5 33 -29 70 -53 365 -241 826 -471 1210 -603 137 -47 361 -110 441
-124 14 -3 41 -9 60 -14 34 -8 132 -24 157 -25 24 -1 21 -11 -5 -13 -15 -1
-52 -6 -82 -11 -30 -6 -75 -12 -100 -15 -25 -4 -56 -8 -69 -11 -12 -2 -44 -7
-69 -10 -26 -3 -54 -7 -62 -9 -8 -3 -40 -7 -71 -11 -31 -3 -65 -7 -75 -9 -25
-5 -90 -15 -139 -22 -22 -3 -51 -7 -65 -9 -14 -2 -106 -16 -205 -30 -99 -14
-196 -28 -215 -31 -163 -25 -226 -34 -239 -35 -23 0 291 -152 339 -164 3 0 52
-19 110 -42 125 -49 304 -110 453 -153 106 -30 372 -94 432 -103 17 -3 57 -10
90 -15 33 -6 85 -14 115 -18 30 -4 66 -8 80 -10 62 -8 213 -17 297 -18 50 -1
89 -4 86 -8 -2 -5 -10 -8 -17 -8 -7 0 -105 -27 -217 -61 -112 -33 -256 -75
-319 -94 -63 -18 -223 -65 -355 -104 -132 -40 -303 -90 -380 -113 -77 -22
-144 -43 -149 -46 -16 -9 319 -108 434 -128 14 -3 39 -9 55 -14 17 -5 71 -17
120 -26 50 -9 99 -18 110 -20 26 -6 213 -35 245 -39 14 -1 57 -6 95 -10 39 -4
79 -9 90 -11 30 -6 288 -17 385 -17 168 0 360 15 500 39 22 4 31 3 25 -3 -5
-5 -127 -63 -270 -128 -276 -125 -365 -166 -485 -222 -41 -19 -142 -66 -225
-103 -82 -37 -190 -87 -240 -110 -49 -23 -107 -49 -129 -57 -26 -11 -34 -18
-25 -23 13 -7 172 -32 284 -45 28 -3 66 -7 85 -9 131 -15 271 -21 520 -21 313
0 480 10 651 40 13 2 51 9 84 14 33 6 71 13 85 15 14 3 50 11 80 17 47 9 229
62 295 85 18 6 -145 -103 -340 -229 -80 -51 -197 -126 -547 -352 -136 -88
-276 -178 -311 -200 -34 -22 -76 -50 -92 -63 l-30 -22 265 5 c146 2 274 6 285
9 11 2 60 7 109 11 49 4 98 8 110 10 11 2 44 6 71 9 28 4 61 8 75 11 14 2 43
7 65 10 22 3 72 12 110 20 39 8 86 17 105 20 19 3 62 13 95 22 33 8 70 17 82
19 108 20 450 142 577 205 32 17 61 28 63 25 3 -3 -10 -18 -28 -33 -19 -15
-56 -48 -84 -73 -51 -45 -149 -131 -235 -205 -26 -22 -75 -65 -110 -95 -35
-30 -79 -68 -98 -85 -20 -16 -49 -43 -66 -58 -17 -15 -59 -51 -93 -80 l-63
-52 38 -6 c42 -7 494 -3 532 5 14 3 50 7 80 11 48 5 164 22 270 40 19 3 49 10
65 15 17 5 44 12 60 15 142 25 282 93 459 219 l79 57 -84 -98 c-46 -53 -91
-105 -99 -113 -8 -9 -34 -38 -57 -66 -23 -27 -54 -62 -68 -79 -15 -16 -47 -55
-73 -85 -26 -30 -63 -73 -83 -95 -20 -22 -49 -55 -65 -73 l-27 -34 69 7 c38 3
80 8 94 10 14 2 50 7 80 10 30 4 57 8 60 10 3 2 30 6 60 9 30 3 48 3 40 0 -8
-3 -89 -33 -180 -66 -306 -112 -503 -200 -729 -326 -327 -182 -617 -417 -787
-637 -40 -53 -58 -67 -99 -81 -462 -157 -840 -414 -1086 -739 -169 -223 -305
-519 -383 -833 -19 -75 -37 -155 -40 -177 -4 -22 -8 -51 -11 -65 -11 -53 -15
-77 -21 -120 -3 -25 -8 -52 -9 -60 -3 -16 -14 -104 -20 -170 -2 -19 -7 -78
-10 -130 -4 -52 -8 -113 -10 -135 -6 -62 -15 -497 -20 -985 -3 -245 -7 -476
-9 -515 -3 -38 -8 -117 -11 -175 -3 -58 -8 -123 -10 -145 -11 -106 -20 -183
-30 -234 -1 -9 -6 -36 -10 -61 -36 -239 -113 -481 -212 -670 -124 -237 -285
-412 -515 -560 -38 -23 -68 -44 -68 -45 0 -5 311 86 430 125 222 74 494 193
625 275 239 148 387 280 511 456 111 158 201 384 229 579 4 24 8 47 10 50 19
31 27 575 12 770 -4 52 -10 122 -12 155 -2 33 -7 80 -9 105 -3 25 -8 74 -11
110 -4 36 -8 76 -10 90 -2 14 -6 59 -10 100 -3 41 -7 91 -10 110 -2 19 -7 67
-11 105 -3 39 -8 90 -10 115 -6 66 -6 422 1 515 6 99 18 209 30 285 2 14 9 56
15 94 63 402 233 822 419 1036 28 33 30 33 25 10 -6 -32 -6 -257 0 -290 3 -14
7 -45 10 -70 18 -139 77 -342 153 -525 25 -61 134 -284 156 -320 89 -145 120
-191 166 -255 30 -41 60 -80 66 -87 5 -7 15 -18 20 -25 46 -59 158 -187 233
-267 63 -66 243 -260 267 -286 11 -12 37 -40 58 -63 20 -23 37 -43 37 -46 0
-2 15 -20 33 -39 100 -107 246 -358 305 -528 31 -87 77 -269 87 -344 3 -22 7
-51 10 -65 23 -125 23 -546 0 -765 -5 -47 -20 -172 -30 -240 -2 -16 -7 -50
-10 -75 -3 -25 -12 -81 -20 -125 -8 -44 -16 -91 -19 -105 -6 -38 -18 -103 -22
-120 -22 -107 -69 -323 -85 -390 -36 -154 -37 -153 20 -75 27 39 73 102 102
140 79 108 318 439 371 513 190 268 628 949 628 976 0 2 16 33 36 68 200 352
403 855 480 1191 2 9 7 27 10 40 21 85 60 315 69 407 3 30 8 73 11 95 3 22 7
134 8 250 l2 210 95 17 c138 26 137 26 224 48 44 12 87 22 95 24 241 57 630
199 980 359 25 11 47 21 50 22 3 0 68 33 146 72 127 64 186 95 319 169 22 13
57 32 78 43 184 101 665 420 812 538 6 5 42 33 80 63 39 30 86 68 106 85 20
16 55 46 79 65 127 102 347 313 480 460 47 52 90 100 97 108 7 7 27 33 45 58
l32 45 76 -7 c143 -12 515 -4 541 11 3 2 27 6 55 10 54 6 155 22 194 30 14 3
41 8 60 11 19 3 53 10 75 16 22 5 51 12 65 15 142 25 594 161 805 242 91 35
84 38 157 -59 196 -258 226 -596 87 -949 -68 -171 -171 -348 -295 -508 l-64
-82 169 -273 c93 -150 220 -355 282 -456 61 -100 115 -184 118 -187 4 -2 26
58 50 133 100 322 269 759 437 1133 34 76 34 76 29 199 -5 128 -12 228 -20
270 -2 14 -7 50 -10 81 -4 45 -50 280 -70 359 -15 62 -82 268 -111 343 -98
250 -260 536 -386 680 -27 32 -41 39 -78 43 -117 10 -215 20 -285 29 -16 2
-70 9 -120 15 -102 13 -149 19 -185 25 -14 2 -43 7 -65 10 -23 3 -52 8 -65 10
-14 3 -54 10 -90 16 -36 5 -108 19 -160 31 -52 11 -105 22 -117 24 -12 2 -77
20 -145 39 -127 37 -217 73 -281 112 l-37 24 119 60 c107 53 354 209 421 266
14 11 63 52 110 89 177 142 528 478 607 582 14 17 31 32 38 32 7 0 38 -11 70
-25 259 -115 419 -345 469 -677 14 -87 15 -379 3 -433 -3 -11 -8 -40 -11 -65
-3 -25 -8 -56 -11 -70 -3 -14 -8 -41 -11 -60 l-5 -35 92 -55 c51 -30 112 -66
135 -80 24 -14 166 -99 316 -190 150 -91 275 -166 279 -168 4 -2 3 14 -1 35
-9 40 -20 94 -25 128 -10 65 -36 245 -40 270 -2 17 -7 62 -10 100 -3 39 -8 77
-10 85 -2 8 -7 49 -10 90 -11 127 -14 163 -19 225 -3 33 -8 107 -11 165 -9
151 -12 176 -36 223 -35 68 -141 242 -151 245 -4 2 -8 9 -8 15 0 13 -123 177
-209 277 -110 128 -301 307 -426 398 -117 85 -226 153 -337 207 -40 20 -80 40
-88 44 -10 5 -52 -6 -115 -31 -55 -21 -163 -61 -240 -89 -77 -28 -149 -54
-160 -59 -38 -17 -270 -88 -400 -123 -178 -48 -297 -70 -305 -57 -4 6 -3 32 1
58 4 26 10 72 13 102 4 30 9 66 11 80 2 14 7 49 10 79 4 30 8 61 10 70 1 9 6
39 9 66 4 28 9 57 11 65 2 8 6 38 10 65 3 28 8 57 10 65 2 8 7 38 10 65 11 78
12 82 39 230 14 77 28 156 31 175 3 19 12 67 20 105 8 39 17 81 19 95 4 21 25
119 43 198 5 21 10 23 40 17 102 -19 300 -111 418 -194 181 -126 275 -247 435
-557 73 -142 122 -203 185 -233 71 -33 188 -23 313 28 26 10 85 34 132 51 147
57 279 130 329 184 24 25 25 32 25 159 -1 125 -11 333 -19 387 -2 14 -6 55
-10 91 -3 36 -7 76 -10 90 -2 13 -6 47 -10 74 -3 28 -8 64 -10 80 -3 17 -7 46
-9 65 -6 41 -44 281 -51 325 -14 78 -55 303 -60 325 -3 14 -8 39 -10 55 -5 24
-48 248 -60 305 -32 156 -117 307 -247 440 l-72 73 30 24 c50 41 275 188 349
228 92 49 283 127 365 149 36 9 72 20 80 23 25 9 -250 94 -383 117 -212 38
-279 46 -421 50 l-80 2 -22 84 c-35 136 -90 275 -147 365 -34 56 -116 156
-166 204 -52 50 -154 131 -165 131 -4 0 -2 -20 9 -92 3 -18 8 -93 11 -166 l7
-134 -74 75 c-212 212 -451 319 -746 331 -35 2 -63 0 -63 -4 0 -4 9 -15 20
-25 57 -52 222 -355 193 -355 -3 0 -30 16 -60 36 -136 90 -376 182 -532 202
-97 14 -267 7 -351 -14 -41 -10 -78 -17 -82 -16 -19 5 -3 -8 51 -42 54 -33
207 -183 197 -193 -2 -2 -30 0 -62 6 -33 5 -75 12 -94 15 -42 7 -272 7 -318 1
-54 -8 -216 -47 -227 -55 -5 -4 -21 -11 -35 -15 -14 -4 -40 -16 -57 -27 l-33
-19 133 -68 c131 -67 227 -123 322 -188 l50 -34 -40 7 c-22 4 -49 8 -60 11
-69 14 -127 17 -265 17 -131 -1 -171 -5 -257 -27 -56 -14 -116 -32 -135 -40
-18 -8 -48 -21 -65 -28 -18 -8 -33 -17 -33 -20 0 -3 39 -25 88 -49 152 -76
442 -249 442 -264 0 -3 -16 0 -36 6 -108 29 -238 41 -389 35 -160 -7 -270 -31
-384 -83 l-74 -34 134 -69 c74 -37 165 -86 202 -109 l69 -40 -139 1 c-221 2
-348 -23 -511 -100 l-34 -16 129 -66 c127 -65 349 -197 358 -211 3 -5 -14 -5
-37 -2 -60 9 -322 9 -389 -1 -97 -13 -319 -87 -319 -106 0 -4 39 -26 88 -49
95 -45 260 -137 279 -155 9 -9 -1 -12 -45 -13 -132 -1 -273 -32 -390 -85 l-67
-30 140 -73 c134 -69 236 -127 262 -148 10 -8 9 -14 -4 -26 -15 -15 -127 -154
-191 -237 -67 -87 -170 -230 -220 -305 -31 -47 -59 -87 -62 -90 -3 -3 -10 -14
-17 -25 -6 -11 -35 -57 -64 -103 l-53 -83 -50 5 c-28 3 -82 8 -121 11 -74 6
-124 12 -165 20 -14 2 -45 7 -70 10 -50 5 -93 12 -130 21 -14 3 -36 8 -50 10
-14 3 -43 10 -65 16 -22 5 -51 12 -64 15 -37 6 -260 82 -311 105 -222 101
-330 165 -515 303 -148 110 -325 275 -440 410 -33 39 -63 72 -66 75 -20 18
-249 344 -249 355 0 1 -17 32 -39 66 -54 90 -162 307 -206 414 -20 50 -41 98
-46 108 -9 17 -26 63 -78 217 -44 129 -116 387 -136 488 -2 9 -10 51 -19 92
-8 41 -17 89 -20 105 -10 58 -36 220 -41 260 -3 22 -7 54 -10 70 -2 17 -7 62
-10 100 -4 39 -8 90 -10 115 -3 25 -7 126 -11 224 l-6 180 -41 65 c-23 37 -45
67 -49 69 -4 2 -8 7 -8 12 0 4 -37 63 -81 131 -45 68 -96 147 -114 174 -18 28
-72 111 -120 185 -48 74 -117 181 -154 238 -36 56 -98 151 -136 210 -39 59
-158 242 -264 407 -107 165 -236 363 -286 440 -50 77 -112 172 -137 210 -25
39 -130 201 -233 360 -104 160 -217 335 -253 390 -116 179 -261 402 -378 580
-43 66 -83 128 -89 137 -5 9 -23 38 -39 65 -16 26 -32 50 -35 53 -4 3 -51 75
-106 160 -161 251 -294 454 -305 467 -5 7 -10 14 -10 17 0 2 -63 100 -139 218
-193 295 -304 465 -316 486 -6 9 -41 64 -79 122 -38 58 -87 132 -108 165 l-38
60 -1 -55z"/>
</g>
</svg>
